#tb 0: 1/25
#media_type 0: video
#codec_id 0: rawvideo
#dimensions 0: 352x288
#sar 0: 1/1
0,          1,          1,        1,   152064, 0x75bd7fb6
0,          2,          2,        1,   152064, 0xb2d78357
0,          3,          3,        1,   152064, 0xf9511151
0,          4,          4,        1,   152064, 0x187d7ec8
0,          5,          5,        1,   152064, 0xe9a1ca36
